<svg xmlns="http://www.w3.org/2000/svg" xmlns:xlink="http://www.w3.org/1999/xlink" version="1.1" x="0px" y="0px" viewBox="0 0 100 125" enable-background="new 0 0 100 100" xml:space="preserve"><g><g><path d="M53.474,77.922c-5.497,0-10.383-2.912-13.426-7.543c-2.861,2.754-6.532,4.577-10.404,4.334    c-3.585-0.231-9.999-2.616-12.673-15.987c-0.592-2.957-0.962-5.754-1.113-8.386c-3.512,2.687-5.767,6.025-6.438,7.703    c-0.308,0.771-1.181,1.144-1.95,0.836c-0.769-0.308-1.143-1.181-0.835-1.949c0.927-2.319,4.118-6.981,9.157-10.2    c0.174-7.635,2.435-13.7,6.767-18.109c6.761-6.881,16.944-7.908,23.61-6.695c5.35,0.973,10.009,5.763,11.569,11.684    c1.171,0.756,2.263,1.609,3.27,2.556c7.673-1.402,13.271-0.372,16.676,3.075c0.283,0.287,0.545,0.584,0.787,0.891    c4.454-0.593,7.947,0.359,10.416,2.84c7.312,7.352,2.229,25.52,2.01,26.289c-0.229,0.798-1.059,1.256-1.854,1.03    c-0.797-0.228-1.258-1.058-1.031-1.854c0.049-0.172,4.824-17.245-1.254-23.352c-1.552-1.559-3.782-2.258-6.644-2.099    c2.104,5.212,0.578,11.287,0.385,12.007c-1.176,5.718-7.25,9.277-12.601,9.277c-0.083,0-0.166-0.001-0.248-0.002    C65.523,71.689,60.613,77.922,53.474,77.922z M42.142,68.01c2.293,3.942,6.193,6.912,11.332,6.912    c5.344,0,9.321-4.988,11.185-11.146c-1.337-0.448-2.418-1.196-3.165-2.196c-0.732-0.981-1.496-2.704-0.97-5.336    c0.65-3.25,2.288-5.968,4.229-8.166c-0.92-3.128-2.461-6.127-4.759-8.653c-0.595,0.131-1.204,0.276-1.827,0.437    c-0.549,4.678-3.224,11.133-12.48,16.505c0.261,2.004,0.034,4.151-0.71,6.352C44.359,64.541,43.385,66.359,42.142,68.01z     M18.785,48.447c0.054,2.975,0.429,6.207,1.126,9.691c1.691,8.454,5.216,13.277,9.925,13.581c2.97,0.203,6.213-1.437,8.72-4.077    c-0.775-1.746-1.32-3.661-1.587-5.698c-0.124-0.946-0.187-1.866-0.193-2.76c-3.25,0.037-6.216-1.067-8.673-3.331    c-2.57-2.369-4.169-5.68-4.637-9.149c-0.478,0.104-0.954,0.23-1.428,0.377C20.886,47.438,19.8,47.905,18.785,48.447z     M39.799,58.813c-0.023,0.931,0.027,1.848,0.145,2.74c0.144,1.099,0.399,2.199,0.759,3.272c0.581-0.963,1.067-1.993,1.431-3.069    c0.351-1.037,0.678-2.413,0.665-3.918C41.79,58.265,40.787,58.59,39.799,58.813z M68.09,48.947    c0.596,2.626,0.843,5.404,0.714,8.244c-0.062,1.351-0.214,2.712-0.455,4.057c3.707-0.199,8.345-2.532,9.218-6.896    c0.007-0.037,0.016-0.074,0.026-0.11c0.02-0.071,1.69-6.271-0.568-10.806c-0.414,0.093-0.839,0.199-1.272,0.319    C75.166,44.013,71.354,45.772,68.09,48.947z M65.573,51.923c-0.979,1.45-1.744,3.089-2.108,4.909    c-0.248,1.243-0.103,2.236,0.433,2.953c0.382,0.513,0.93,0.844,1.473,1.059c0.231-1.251,0.379-2.522,0.437-3.789    C65.882,55.384,65.812,53.654,65.573,51.923z M26.461,46.335c0.386,2.786,1.657,5.452,3.674,7.312    c1.936,1.783,4.263,2.628,6.839,2.536c0.297-2.08,0.916-3.996,1.786-5.749c-0.105-0.075-0.212-0.148-0.322-0.222    C34.391,47.514,30.378,46.211,26.461,46.335z M41.086,52.661c-0.4,0.976-0.701,1.964-0.911,2.952    c0.684-0.213,1.378-0.484,2.082-0.815C41.99,54.077,41.609,53.358,41.086,52.661z M42.579,49.806    c0.994,1.067,1.765,2.26,2.302,3.546c5.614-3.446,9.108-7.82,10.116-12.545C48.89,42.923,44.923,46.174,42.579,49.806z     M26.978,43.318c4.338,0,8.731,1.469,13.125,4.398c0.066,0.044,0.132,0.089,0.197,0.133c3.561-5.079,9.33-8.488,14.995-10.288    c-0.018-0.614-0.075-1.231-0.175-1.851c-0.012-0.068-0.022-0.137-0.035-0.205c-2.778-1.581-6.173-2.665-10.268-3.038    c-11.937-1.083-16.087,4.096-17.5,7.281c-0.5,1.127-0.804,2.34-0.922,3.578C26.588,43.321,26.783,43.318,26.978,43.318z     M63.411,38.812c0.138,0.178,0.273,0.359,0.407,0.542c1.391,1.909,2.509,4.054,3.333,6.362c3.575-3.087,7.249-4.65,7.521-4.764    c0.057-0.023,0.114-0.043,0.173-0.06c0.053-0.015,0.105-0.03,0.158-0.044C72.539,38.786,68.657,38.108,63.411,38.812z     M41.272,24.513c-5.076,0-11.798,1.348-16.575,6.209c-3.454,3.515-5.4,8.317-5.828,14.35c0.731-0.323,1.491-0.611,2.279-0.855    c0.731-0.227,1.465-0.411,2.201-0.552c0.102-1.762,0.503-3.505,1.225-5.131c2.959-6.668,10.437-9.972,20.514-9.052    c3.141,0.285,6.038,0.975,8.653,2.048c-1.757-3.436-4.81-6.054-8.11-6.654C44.443,24.659,42.947,24.513,41.272,24.513z"/></g></g><text x="0" y="115" fill="#000000" font-size="5px" font-weight="bold" font-family="'Helvetica Neue', Helvetica, Arial-Unicode, Arial, Sans-serif">Created by Emily Haasch</text><text x="0" y="120" fill="#000000" font-size="5px" font-weight="bold" font-family="'Helvetica Neue', Helvetica, Arial-Unicode, Arial, Sans-serif">from the Noun Project</text></svg>